<svg id="Layer_1" data-name="Layer 1" xmlns="http://www.w3.org/2000/svg" viewBox="0 0 141.73 141.73"><defs><style>.cls-1{fill:#d1025f;}</style></defs><title>loshak_sign_color</title><circle class="cls-1" cx="70.87" cy="70.87" r="3.12"/><path class="cls-1" d="M415,293.65h0l-.06,0Z" transform="translate(-349.86 -227.12)"/><path class="cls-1" d="M420.73,227.12A70.87,70.87,0,1,0,491.59,298,70.95,70.95,0,0,0,420.73,227.12Zm0,129.67a58.52,58.52,0,0,1-23.91-5.09,48.62,48.62,0,0,0,2.44-9.09,50.76,50.76,0,0,1,2.41-9.52,5.39,5.39,0,0,1,2.57-3.25,8.46,8.46,0,0,1,4.74-.64c13.41,1.71,21.67-1.44,26.36-1.86,1.87-.17,2.81,1,3.57,2.62a15.06,15.06,0,0,1,.95,2.6,183.27,183.27,0,0,1,3.82,19.58A58.56,58.56,0,0,1,420.73,356.79Zm-13.46-49.2a1.78,1.78,0,1,1-.06,2.51A1.78,1.78,0,0,1,407.27,307.58ZM427,312a1.78,1.78,0,1,1-.83,2.37A1.78,1.78,0,0,1,427,312Zm12-16.64a1.78,1.78,0,1,1-1.52,2A1.78,1.78,0,0,1,439,295.33Zm28.79,49-5.14-5.14a59.22,59.22,0,0,1-5.52,4.93c1.22-10.19,2.45-22.89,1.85-30.33a38.12,38.12,0,0,0-1.15-6.34c5.29,3.13,9.54,12.64,9.54,12.64s14.12-6.65,9.24-18.24a28.94,28.94,0,0,0-21.08-3.46l-1.13.31-1.21.34.21.53a34.56,34.56,0,0,0-3.07-3,24.77,24.77,0,0,0-8.09-3.72,58.38,58.38,0,0,0-5.77-1.21,7.16,7.16,0,0,1-3.08,4.33,7.3,7.3,0,0,1-3.24,1.16,7.2,7.2,0,0,1,4.6,1.61c2.94,2.36,3.58,6.42,1.42,9.08s-6.28,2.9-9.21.55a7.3,7.3,0,0,1-2.11-2.72,7.2,7.2,0,0,1-.11,4.88c-1.33,3.52-5,5.39-8.2,4.16s-4.7-5.07-3.37-8.59a7.3,7.3,0,0,1,1.94-2.85,7.2,7.2,0,0,1-4.67,1.4c-3.76-.18-6.67-3.09-6.49-6.51s3.37-6,7.13-5.86a7.3,7.3,0,0,1,3.31,1,7.2,7.2,0,0,1-2.78-4,6.59,6.59,0,0,1,3.49-7.94c-.51-1.16-1-2.26-1.39-3a27.63,27.63,0,0,0-8.29-10,25.8,25.8,0,0,0-13.56-5,2.33,2.33,0,0,1-1.45-.58c-2.27-2-7.34-6.93-7.85-7.06a.62.62,0,0,0-.86.52c-.92,3.72-1.9,7.43-2.5,11.23a1.43,1.43,0,0,1-.56,1c-1.24,1-9.5,8-15.42,14.21-3.25,3.3-2.57,7.1-.94,9.2,3.48,4.48,6.14,3,7.86,1.93,2-1.31,3.54-2,5.8-3.44s5-.23,6.34,1.4c5.19,6.43,6.51,19.86,6,31.33,0,5-1,14.95-1.84,22.83a59.18,59.18,0,0,1-7.71-6.58l-5.14,5.14a66.11,66.11,0,1,1,94.15,0ZM405.92,288a1.78,1.78,0,1,1,.72,2.41A1.78,1.78,0,0,1,405.92,288Zm-27.83-15.11a1.72,1.72,0,0,0-.45.07,2.76,2.76,0,1,1,0,3.34,1.73,1.73,0,1,0,.45-3.4Z" transform="translate(-349.86 -227.12)"/></svg>